<svg xmlns="http://www.w3.org/2000/svg" xmlns:xlink="http://www.w3.org/1999/xlink" viewBox="0 0 500 500"><defs><style>.cls-1{isolation:isolate;}.cls-2{fill:#bedaff;}.cls-3{fill:#00e9ff;}.cls-4{fill:#3a55ca;}.cls-5{fill:#0382ff;}.cls-6{fill:#c3e0fe;}.cls-7{fill:url(#Degradado_sin_nombre_8);}.cls-8{fill:url(#Degradado_sin_nombre_4);}.cls-10,.cls-11,.cls-12,.cls-13,.cls-14,.cls-22,.cls-24,.cls-9{mix-blend-mode:overlay;}.cls-9{fill:url(#Degradado_sin_nombre_4-2);}.cls-10{fill:url(#Degradado_sin_nombre_4-3);}.cls-11{fill:url(#Degradado_sin_nombre_4-4);}.cls-12{fill:url(#Degradado_sin_nombre_4-5);}.cls-13{fill:url(#Degradado_sin_nombre_4-6);}.cls-14{fill:url(#Degradado_sin_nombre_4-7);}.cls-15{fill:url(#Degradado_sin_nombre_145);}.cls-16{fill:#a9bdea;}.cls-17{mix-blend-mode:screen;fill:url(#Degradado_sin_nombre_144);}.cls-18{fill:url(#Degradado_sin_nombre_10);}.cls-19{fill:#a3b9e8;}.cls-20{fill:#7b97c9;}.cls-21{fill:#90a9d6;}.cls-22{opacity:0.32;}.cls-23{fill:#fff;}.cls-24{fill:url(#Degradado_sin_nombre_142);}.cls-25{fill:url(#Degradado_sin_nombre_6);}.cls-26{fill:#2645b5;}.cls-27{fill:#335185;}.cls-28{fill:#9cc0e8;}.cls-29{fill:url(#Degradado_sin_nombre_4-8);}.cls-30{fill:url(#Degradado_sin_nombre_4-9);}.cls-31{fill:url(#Degradado_sin_nombre_4-10);}.cls-32{fill:url(#Degradado_sin_nombre_10-2);}.cls-33{fill:#bdcefa;}.cls-34{fill:url(#Degradado_sin_nombre_4-11);}.cls-35{fill:url(#Degradado_sin_nombre_10-3);}.cls-36,.cls-38,.cls-40,.cls-42,.cls-44,.cls-46{mix-blend-mode:color-dodge;}.cls-36{fill:url(#Degradado_sin_nombre_9);}.cls-37{fill:url(#Degradado_sin_nombre_10-4);}.cls-38{fill:url(#Degradado_sin_nombre_9-2);}.cls-39{fill:url(#Degradado_sin_nombre_10-5);}.cls-40{fill:url(#Degradado_sin_nombre_9-3);}.cls-41{fill:url(#Degradado_sin_nombre_10-6);}.cls-42{fill:url(#Degradado_sin_nombre_9-4);}.cls-43{fill:url(#Degradado_sin_nombre_10-7);}.cls-44{fill:url(#Degradado_sin_nombre_9-5);}.cls-45{fill:url(#Degradado_sin_nombre_10-8);}.cls-46{fill:url(#Degradado_sin_nombre_9-6);}.cls-47{fill:#2d0d60;}.cls-48{fill:#fcc4b7;}.cls-49{fill:#293677;}.cls-50{fill:#dd936f;}.cls-51{fill:#b25e02;}.cls-103,.cls-51{fill-rule:evenodd;}.cls-52{fill:#fefefe;}.cls-53{fill:url(#Degradado_sin_nombre_5);}.cls-54{fill:url(#Degradado_sin_nombre_5-2);}.cls-55{fill:url(#Degradado_sin_nombre_5-3);}.cls-56{fill:url(#Degradado_sin_nombre_5-4);}.cls-57{fill:url(#Degradado_sin_nombre_5-5);}.cls-58{fill:url(#Degradado_sin_nombre_5-6);}.cls-59{fill:url(#Degradado_sin_nombre_5-7);}.cls-60{fill:url(#Degradado_sin_nombre_5-8);}.cls-61{fill:url(#Degradado_sin_nombre_5-9);}.cls-62{fill:url(#Degradado_sin_nombre_5-10);}.cls-63{fill:url(#Degradado_sin_nombre_5-11);}.cls-64{fill:url(#Degradado_sin_nombre_5-12);}.cls-65{fill:url(#Degradado_sin_nombre_5-13);}.cls-66{fill:url(#Degradado_sin_nombre_5-14);}.cls-67{fill:url(#Degradado_sin_nombre_5-15);}.cls-68{fill:url(#Degradado_sin_nombre_5-16);}.cls-69{fill:url(#Degradado_sin_nombre_5-17);}.cls-70{fill:url(#Degradado_sin_nombre_5-18);}.cls-71{fill:url(#Degradado_sin_nombre_5-19);}.cls-72{fill:url(#Degradado_sin_nombre_5-20);}.cls-73{fill:url(#Degradado_sin_nombre_5-21);}.cls-74{fill:url(#Degradado_sin_nombre_5-22);}.cls-75{fill:url(#Degradado_sin_nombre_8-2);}.cls-76{fill:url(#Degradado_sin_nombre_6-2);}.cls-77{fill:url(#Degradado_sin_nombre_137);}.cls-78{fill:url(#Degradado_sin_nombre_136);}.cls-79{fill:url(#Degradado_sin_nombre_4-12);}.cls-80{fill:url(#Degradado_sin_nombre_4-13);}.cls-81{fill:#484968;}.cls-82{fill:#f1ac85;}.cls-83{fill:#943bbb;}.cls-84{fill:#8800bf;}.cls-85{fill:#ffffeb;}.cls-86{fill:#1f1f1f;}.cls-87{fill:#54a5f8;}.cls-88{fill:url(#Degradado_sin_nombre_5-23);}.cls-89{fill:#010400;}.cls-90{fill:#e28c66;}.cls-91{fill:url(#Degradado_sin_nombre_4-14);}.cls-92{fill:url(#Degradado_sin_nombre_4-15);}.cls-93{fill:url(#Degradado_sin_nombre_4-16);}.cls-94{fill:url(#Degradado_sin_nombre_4-17);}.cls-95{fill:url(#Degradado_sin_nombre_4-18);}.cls-96{fill:url(#Degradado_sin_nombre_2);}.cls-97{fill:#b6b9fe;}.cls-98{fill:#f9ab83;}.cls-99{fill:#2d2d4f;}.cls-100{fill:#1c1c38;}.cls-101{fill:#46466c;}.cls-102{fill:#e5a89c;}.cls-103{fill:#e58800;}.cls-104{fill:none;}</style><linearGradient id="Degradado_sin_nombre_8" x1="788.8" y1="268.13" x2="1034.87" y2="120.64" gradientUnits="userSpaceOnUse"><stop offset="0" stop-color="#e4f2ff" stop-opacity="0"></stop><stop offset="0.11" stop-color="#dfedfe" stop-opacity="0.14"></stop><stop offset="0.36" stop-color="#d3e2fd" stop-opacity="0.44"></stop><stop offset="0.58" stop-color="#c9d9fc" stop-opacity="0.68"></stop><stop offset="0.77" stop-color="#c3d3fb" stop-opacity="0.85"></stop><stop offset="0.91" stop-color="#bfcffa" stop-opacity="0.96"></stop><stop offset="1" stop-color="#bdcefa"></stop></linearGradient><linearGradient id="Degradado_sin_nombre_4" x1="1085.95" y1="101.41" x2="707.38" y2="297.15" gradientUnits="userSpaceOnUse"><stop offset="0" stop-color="#fff"></stop><stop offset="0.12" stop-color="#f5f7fe" stop-opacity="0.84"></stop><stop offset="0.37" stop-color="#e1e9fd" stop-opacity="0.55"></stop><stop offset="0.59" stop-color="#d2ddfc" stop-opacity="0.31"></stop><stop offset="0.77" stop-color="#c6d5fb" stop-opacity="0.14"></stop><stop offset="0.91" stop-color="#c0d0fa" stop-opacity="0.04"></stop><stop offset="1" stop-color="#bdcefa" stop-opacity="0"></stop></linearGradient><linearGradient id="Degradado_sin_nombre_4-2" x1="1068.99" y1="68.6" x2="690.41" y2="264.34" xlink:href="#Degradado_sin_nombre_4"></linearGradient><linearGradient id="Degradado_sin_nombre_4-3" x1="1069.92" y1="70.41" x2="691.35" y2="266.15" xlink:href="#Degradado_sin_nombre_4"></linearGradient><linearGradient id="Degradado_sin_nombre_4-4" x1="1099.62" y1="127.85" x2="721.05" y2="323.59" xlink:href="#Degradado_sin_nombre_4"></linearGradient><linearGradient id="Degradado_sin_nombre_4-5" x1="1101.6" y1="131.67" x2="723.02" y2="327.41" xlink:href="#Degradado_sin_nombre_4"></linearGradient><linearGradient id="Degradado_sin_nombre_4-6" x1="1104.27" y1="136.84" x2="725.69" y2="332.58" xlink:href="#Degradado_sin_nombre_4"></linearGradient><linearGradient id="Degradado_sin_nombre_4-7" x1="1106.94" y1="142.01" x2="728.37" y2="337.75" xlink:href="#Degradado_sin_nombre_4"></linearGradient><linearGradient id="Degradado_sin_nombre_145" x1="807.77" y1="70.45" x2="682.56" y2="387.19" gradientUnits="userSpaceOnUse"><stop offset="0" stop-color="#c3e0fe"></stop><stop offset="0.06" stop-color="#c1ddfc"></stop><stop offset="0.65" stop-color="#abc3ee"></stop><stop offset="1" stop-color="#a3b9e8"></stop></linearGradient><linearGradient id="Degradado_sin_nombre_144" x1="776.52" y1="25.31" x2="657.51" y2="351.35" gradientUnits="userSpaceOnUse"><stop offset="0" stop-color="#bedaff"></stop><stop offset="1" stop-color="#fff" stop-opacity="0"></stop></linearGradient><linearGradient id="Degradado_sin_nombre_10" x1="809.71" y1="57.93" x2="611.23" y2="583.64" gradientUnits="userSpaceOnUse"><stop offset="0" stop-color="#e4f2ff"></stop><stop offset="0.06" stop-color="#e1efff"></stop><stop offset="0.65" stop-color="#c7d7fb"></stop><stop offset="1" stop-color="#bdcefa"></stop></linearGradient><linearGradient id="Degradado_sin_nombre_142" x1="746.52" y1="78.3" x2="746.52" y2="336.82" gradientUnits="userSpaceOnUse"><stop offset="0" stop-color="#a9bdea"></stop><stop offset="1" stop-color="#fff" stop-opacity="0"></stop></linearGradient><linearGradient id="Degradado_sin_nombre_6" x1="702.24" y1="270.38" x2="806.88" y2="347.17" gradientUnits="userSpaceOnUse"><stop offset="0" stop-color="#00e9ff"></stop><stop offset="0.18" stop-color="#01d1ff"></stop><stop offset="0.55" stop-color="#02a6ff"></stop><stop offset="0.83" stop-color="#038cff"></stop><stop offset="1" stop-color="#0382ff"></stop></linearGradient><linearGradient id="Degradado_sin_nombre_4-8" x1="767.65" y1="153.39" x2="723.82" y2="195.94" xlink:href="#Degradado_sin_nombre_4"></linearGradient><linearGradient id="Degradado_sin_nombre_4-9" x1="766.06" y1="151.76" x2="722.24" y2="194.31" xlink:href="#Degradado_sin_nombre_4"></linearGradient><linearGradient id="Degradado_sin_nombre_4-10" x1="763.96" y1="149.6" x2="720.14" y2="192.15" xlink:href="#Degradado_sin_nombre_4"></linearGradient><linearGradient id="Degradado_sin_nombre_10-2" x1="238.08" y1="126.4" x2="225.63" y2="147.53" xlink:href="#Degradado_sin_nombre_10"></linearGradient><linearGradient id="Degradado_sin_nombre_4-11" x1="795.16" y1="187.63" x2="771.57" y2="247.24" xlink:href="#Degradado_sin_nombre_4"></linearGradient><linearGradient id="Degradado_sin_nombre_10-3" x1="837.81" y1="271.28" x2="745.15" y2="354.46" xlink:href="#Degradado_sin_nombre_10"></linearGradient><linearGradient id="Degradado_sin_nombre_9" x1="779.5" y1="375.59" x2="779.5" y2="234.41" gradientUnits="userSpaceOnUse"><stop offset="0.07" stop-color="#55d1ff"></stop><stop offset="0.16" stop-color="#4fc3ee" stop-opacity="0.93"></stop><stop offset="0.35" stop-color="#41a0c2" stop-opacity="0.76"></stop><stop offset="0.6" stop-color="#29677b" stop-opacity="0.48"></stop><stop offset="0.92" stop-color="#0a191a" stop-opacity="0.1"></stop><stop offset="1" stop-color="#010400" stop-opacity="0"></stop></linearGradient><linearGradient id="Degradado_sin_nombre_10-4" x1="850.13" y1="264.27" x2="797.43" y2="300.2" xlink:href="#Degradado_sin_nombre_10"></linearGradient><linearGradient id="Degradado_sin_nombre_9-2" x1="804.02" y1="292.37" x2="804.02" y2="275.1" xlink:href="#Degradado_sin_nombre_9"></linearGradient><linearGradient id="Degradado_sin_nombre_10-5" x1="864.44" y1="285.26" x2="811.75" y2="321.19" xlink:href="#Degradado_sin_nombre_10"></linearGradient><linearGradient id="Degradado_sin_nombre_9-3" x1="818.84" y1="313.02" x2="818.84" y2="295.75" xlink:href="#Degradado_sin_nombre_9"></linearGradient><linearGradient id="Degradado_sin_nombre_10-6" x1="878.76" y1="306.26" x2="826.06" y2="342.19" xlink:href="#Degradado_sin_nombre_10"></linearGradient><linearGradient id="Degradado_sin_nombre_9-4" x1="833.66" y1="333.67" x2="833.66" y2="316.4" xlink:href="#Degradado_sin_nombre_9"></linearGradient><linearGradient id="Degradado_sin_nombre_10-7" x1="893.07" y1="327.25" x2="840.38" y2="363.18" xlink:href="#Degradado_sin_nombre_10"></linearGradient><linearGradient id="Degradado_sin_nombre_9-5" x1="848.48" y1="354.33" x2="848.48" y2="337.05" xlink:href="#Degradado_sin_nombre_9"></linearGradient><linearGradient id="Degradado_sin_nombre_10-8" x1="907.39" y1="348.25" x2="854.69" y2="384.18" xlink:href="#Degradado_sin_nombre_10"></linearGradient><linearGradient id="Degradado_sin_nombre_9-6" x1="863.3" y1="374.98" x2="863.3" y2="357.7" xlink:href="#Degradado_sin_nombre_9"></linearGradient><linearGradient id="Degradado_sin_nombre_5" x1="820.75" y1="372.79" x2="712.37" y2="374.31" gradientUnits="userSpaceOnUse"><stop offset="0" stop-color="#fff"></stop><stop offset="0.58" stop-color="#dae4fc"></stop><stop offset="1" stop-color="#bdcefa"></stop></linearGradient><linearGradient id="Degradado_sin_nombre_5-2" x1="820.76" y1="373.69" x2="712.38" y2="375.21" xlink:href="#Degradado_sin_nombre_5"></linearGradient><linearGradient id="Degradado_sin_nombre_5-3" x1="820.79" y1="376.09" x2="712.42" y2="377.61" xlink:href="#Degradado_sin_nombre_5"></linearGradient><linearGradient id="Degradado_sin_nombre_5-4" x1="820.83" y1="378.5" x2="712.45" y2="380.02" xlink:href="#Degradado_sin_nombre_5"></linearGradient><linearGradient id="Degradado_sin_nombre_5-5" x1="820.94" y1="386.8" x2="712.57" y2="388.32" xlink:href="#Degradado_sin_nombre_5"></linearGradient><linearGradient id="Degradado_sin_nombre_5-6" x1="820.58" y1="360.99" x2="712.21" y2="362.51" xlink:href="#Degradado_sin_nombre_5"></linearGradient><linearGradient id="Degradado_sin_nombre_5-7" x1="820.92" y1="385.15" x2="712.55" y2="386.67" xlink:href="#Degradado_sin_nombre_5"></linearGradient><linearGradient id="Degradado_sin_nombre_5-8" x1="805.85" y1="390.99" x2="716.04" y2="390.99" xlink:href="#Degradado_sin_nombre_5"></linearGradient><linearGradient id="Degradado_sin_nombre_5-9" x1="807.3" y1="392.95" x2="714.99" y2="394.14" xlink:href="#Degradado_sin_nombre_5"></linearGradient><linearGradient id="Degradado_sin_nombre_5-10" x1="805.34" y1="398.09" x2="715.84" y2="395.93" xlink:href="#Degradado_sin_nombre_5"></linearGradient><linearGradient id="Degradado_sin_nombre_5-11" x1="805.76" y1="399.51" x2="715.39" y2="399.51" xlink:href="#Degradado_sin_nombre_5"></linearGradient><linearGradient id="Degradado_sin_nombre_5-12" x1="804.62" y1="402.35" x2="715.1" y2="402.35" xlink:href="#Degradado_sin_nombre_5"></linearGradient><linearGradient id="Degradado_sin_nombre_5-13" x1="805" y1="405.19" x2="716.75" y2="405.19" xlink:href="#Degradado_sin_nombre_5"></linearGradient><linearGradient id="Degradado_sin_nombre_5-14" x1="987.85" y1="301.65" x2="905.45" y2="303.89" xlink:href="#Degradado_sin_nombre_5"></linearGradient><linearGradient id="Degradado_sin_nombre_5-15" x1="987.91" y1="303.89" x2="905.51" y2="306.13" xlink:href="#Degradado_sin_nombre_5"></linearGradient><linearGradient id="Degradado_sin_nombre_5-16" x1="987.97" y1="306.13" x2="905.57" y2="308.37" xlink:href="#Degradado_sin_nombre_5"></linearGradient><linearGradient id="Degradado_sin_nombre_5-17" x1="988.2" y1="314.69" x2="905.8" y2="316.93" xlink:href="#Degradado_sin_nombre_5"></linearGradient><linearGradient id="Degradado_sin_nombre_5-18" x1="987.68" y1="295.35" x2="905.27" y2="297.59" xlink:href="#Degradado_sin_nombre_5"></linearGradient><linearGradient id="Degradado_sin_nombre_5-19" x1="988.14" y1="312.31" x2="905.74" y2="314.55" xlink:href="#Degradado_sin_nombre_5"></linearGradient><linearGradient id="Degradado_sin_nombre_5-20" x1="991.79" y1="315.05" x2="877.91" y2="323.16" xlink:href="#Degradado_sin_nombre_5"></linearGradient><linearGradient id="Degradado_sin_nombre_5-21" x1="991.99" y1="317.87" x2="878.12" y2="325.98" xlink:href="#Degradado_sin_nombre_5"></linearGradient><linearGradient id="Degradado_sin_nombre_5-22" x1="992.19" y1="320.7" x2="878.32" y2="328.81" xlink:href="#Degradado_sin_nombre_5"></linearGradient><linearGradient id="Degradado_sin_nombre_8-2" x1="872.31" y1="443.79" x2="819.92" y2="447.27" xlink:href="#Degradado_sin_nombre_8"></linearGradient><linearGradient id="Degradado_sin_nombre_6-2" x1="813.49" y1="433.28" x2="849.22" y2="433.28" xlink:href="#Degradado_sin_nombre_6"></linearGradient><linearGradient id="Degradado_sin_nombre_137" x1="831.35" y1="321.82" x2="831.35" y2="496.07" gradientUnits="userSpaceOnUse"><stop offset="0" stop-color="#fff" stop-opacity="0"></stop><stop offset="1" stop-color="#00e9ff"></stop></linearGradient><linearGradient id="Degradado_sin_nombre_136" x1="640.75" y1="353.87" x2="665.69" y2="161.65" gradientUnits="userSpaceOnUse"><stop offset="0" stop-color="#0382ff" stop-opacity="0"></stop><stop offset="0.16" stop-color="#218bff" stop-opacity="0.17"></stop><stop offset="0.74" stop-color="#8bacfe" stop-opacity="0.76"></stop><stop offset="1" stop-color="#b6b9fe"></stop></linearGradient><linearGradient id="Degradado_sin_nombre_4-12" x1="659.76" y1="262.87" x2="563.02" y2="355.25" xlink:href="#Degradado_sin_nombre_4"></linearGradient><linearGradient id="Degradado_sin_nombre_4-13" x1="660.93" y1="264.08" x2="564.18" y2="356.46" xlink:href="#Degradado_sin_nombre_4"></linearGradient><linearGradient id="Degradado_sin_nombre_5-23" x1="176.26" y1="230.42" x2="156.65" y2="254.3" xlink:href="#Degradado_sin_nombre_5"></linearGradient><linearGradient id="Degradado_sin_nombre_4-14" x1="289.74" y1="232.27" x2="287.23" y2="242.14" xlink:href="#Degradado_sin_nombre_4"></linearGradient><linearGradient id="Degradado_sin_nombre_4-15" x1="288.86" y1="232.05" x2="286.34" y2="241.91" xlink:href="#Degradado_sin_nombre_4"></linearGradient><linearGradient id="Degradado_sin_nombre_4-16" x1="288.42" y1="231.94" x2="285.91" y2="241.8" xlink:href="#Degradado_sin_nombre_4"></linearGradient><linearGradient id="Degradado_sin_nombre_4-17" x1="287.87" y1="231.8" x2="285.35" y2="241.66" xlink:href="#Degradado_sin_nombre_4"></linearGradient><linearGradient id="Degradado_sin_nombre_4-18" x1="286.68" y1="231.49" x2="284.17" y2="241.36" xlink:href="#Degradado_sin_nombre_4"></linearGradient><linearGradient id="Degradado_sin_nombre_2" x1="833.1" y1="265.05" x2="848.11" y2="265.05" gradientUnits="userSpaceOnUse"><stop offset="0.07" stop-color="#8347e2"></stop><stop offset="0.27" stop-color="#773bd1"></stop><stop offset="0.68" stop-color="#591ca6"></stop><stop offset="1" stop-color="#3d007e"></stop></linearGradient></defs><title>Vector Smart Object</title><g class="cls-1"><g id="OBJECTS"><path class="cls-2" d="M882.56,247.34l-3.7,2.14c-1.93,1.11-1.93,2.92,0,4l3.7,2.14a7.69,7.69,0,0,0,7,0l3.7-2.14c1.93-1.11,1.93-2.92,0-4l-3.7-2.14A7.75,7.75,0,0,0,882.56,247.34Z" transform="translate(-563.92 -16.35)"></path><path class="cls-2" d="M880.68,284.87h0c1.93,1.12,1.93,2.92,0,4l-2.61,1.51c-1.93,1.11-1.93,2.92,0,4l3.71,2.14a7.73,7.73,0,0,0,7,0l3.71-2.14c1.93-1.11,1.93-2.92,0-4l-2.84-1.64c-1.93-1.12-1.93-2.92,0-4L903,277.06a7.69,7.69,0,0,1,7,0l.9.52a7.75,7.75,0,0,0,7,0l3.7-2.14c1.93-1.12,1.93-2.92,0-4l-3.7-2.13a7.69,7.69,0,0,0-7,0l-2.35,1.35a7.69,7.69,0,0,1-7,0l-13-7.48a7.75,7.75,0,0,0-7,0l-5.07,2.93a7.75,7.75,0,0,1-7,0l-3.44-2a7.75,7.75,0,0,0-7,0l-3.7,2.14c-1.93,1.11-1.93,2.92,0,4l3.44,2c1.93,1.11,1.93,2.92,0,4l-5.36,3.09c-1.93,1.11-1.93,2.92,0,4l7.9,4.57a7.75,7.75,0,0,0,7,0l5.36-3.1A7.75,7.75,0,0,1,880.68,284.87Z" transform="translate(-563.92 -16.35)"></path><path class="cls-2" d="M651.85,424.68l4-2.34c2.11-1.22,2.11-3.19,0-4.41l-4-2.34a8.43,8.43,0,0,0-7.64,0l-4.05,2.34c-2.11,1.22-2.11,3.19,0,4.41l4.05,2.34A8.49,8.49,0,0,0,651.85,424.68Z" transform="translate(-563.92 -16.35)"></path><path class="cls-2" d="M653.9,383.64h0c-2.11-1.22-2.11-3.19,0-4.41l2.85-1.65c2.11-1.22,2.11-3.19,0-4.41l-4-2.34a8.45,8.45,0,0,0-7.65,0l-4,2.34c-2.11,1.22-2.11,3.19,0,4.41l3.1,1.79c2.11,1.22,2.11,3.19,0,4.41l-14.56,8.41a8.43,8.43,0,0,1-7.64,0l-1-.57a8.43,8.43,0,0,0-7.64,0l-4,2.34c-2.11,1.21-2.11,3.19,0,4.41l4,2.34a8.49,8.49,0,0,0,7.64,0l2.57-1.49a8.43,8.43,0,0,1,7.64,0l14.17,8.18a8.43,8.43,0,0,0,7.64,0l5.55-3.2a8.43,8.43,0,0,1,7.64,0l3.76,2.17a8.43,8.43,0,0,0,7.64,0l4.05-2.33c2.11-1.22,2.11-3.2,0-4.41l-3.76-2.18c-2.11-1.22-2.11-3.19,0-4.41l5.85-3.38c2.12-1.22,2.12-3.2,0-4.41l-8.64-5a8.43,8.43,0,0,0-7.64,0l-5.86,3.38A8.43,8.43,0,0,1,653.9,383.64Z" transform="translate(-563.92 -16.35)"></path><path class="cls-3" d="M663.85,191.13a16.54,16.54,0,0,0-7.48,13c0,4.77,3.35,6.71,7.48,4.32a16.55,16.55,0,0,0,7.48-13C671.33,190.67,668,188.74,663.85,191.13Zm0,14.31c-2.71,1.57-4.91.3-4.91-2.83a10.88,10.88,0,0,1,4.91-8.52c2.71-1.56,4.91-.29,4.91,2.84A10.85,10.85,0,0,1,663.85,205.44Z" transform="translate(-563.92 -16.35)"></path><path class="cls-4" d="M660.71,223.33a9,9,0,0,1-4.09,7.08c-2.26,1.31-4.09.25-4.09-2.36a9.05,9.05,0,0,1,4.09-7.09C658.88,219.66,660.71,220.72,660.71,223.33Z" transform="translate(-563.92 -16.35)"></path><path class="cls-4" d="M665,175.06a9,9,0,0,1-4.09,7.08c-2.26,1.31-4.09.25-4.09-2.36a9.05,9.05,0,0,1,4.09-7.09C663.12,171.39,665,172.45,665,175.06Z" transform="translate(-563.92 -16.35)"></path><rect class="cls-5" x="639.22" y="210.88" width="11.67" height="6.73" transform="translate(-426.95 649.4) rotate(-60)"></rect><path class="cls-6" d="M647.38,189.59l-3.41,2v-3.94c0-.73-.51-1-1.14-.66a2.52,2.52,0,0,0-1.13,2v3.94l-3.41,2a2.5,2.5,0,0,0-1.14,2c0,.72.51,1,1.14.65l3.41-2v3.94c0,.73.51,1,1.13.66a2.5,2.5,0,0,0,1.14-2v-3.94l3.41-2a2.52,2.52,0,0,0,1.13-2C648.51,189.52,648,189.22,647.38,189.59Z" transform="translate(-563.92 -16.35)"></path><path class="cls-2" d="M834.73,120.66a16.55,16.55,0,0,0-7.49,13c0,4.77,3.36,6.71,7.49,4.32a16.55,16.55,0,0,0,7.48-13C842.21,120.2,838.86,118.27,834.73,120.66Zm0,14.31c-2.72,1.57-4.92.3-4.92-2.84a10.86,10.86,0,0,1,4.92-8.51c2.71-1.56,4.91-.29,4.91,2.84A10.88,10.88,0,0,1,834.73,135Z" transform="translate(-563.92 -16.35)"></path><path class="cls-3" d="M829.26,148.08a9,9,0,0,1-4.1,7.09c-2.26,1.31-4.09.25-4.09-2.36a9,9,0,0,1,4.09-7.09C827.42,144.42,829.26,145.47,829.26,148.08Z" transform="translate(-563.92 -16.35)"></path><path class="cls-4" d="M835.35,104.1a9.05,9.05,0,0,1-4.09,7.09c-2.26,1.3-4.09.24-4.09-2.37a9,9,0,0,1,4.09-7.08C833.52,100.43,835.35,101.49,835.35,104.1Z" transform="translate(-563.92 -16.35)"></path><rect class="cls-5" x="807.76" y="135.64" width="11.67" height="6.73" transform="translate(-277.51 757.74) rotate(-60)"></rect><path class="cls-6" d="M821.61,114.1l-3.41,2v-3.94c0-.72-.51-1-1.14-.66a2.55,2.55,0,0,0-1.13,2v3.94l-3.41,2a2.5,2.5,0,0,0-1.14,2c0,.73.51,1,1.14.66l3.41-2v3.94c0,.72.51,1,1.13.65a2.5,2.5,0,0,0,1.14-2v-3.94l3.41-2a2.52,2.52,0,0,0,1.13-2C822.74,114,822.23,113.74,821.61,114.1Z" transform="translate(-563.92 -16.35)"></path><path class="cls-7" d="M1004.57,282.86,875.38,208.27a15.43,15.43,0,0,1-7.71-13.35V76.29a15.42,15.42,0,0,1,23.12-13.35L1020,137.53a15.43,15.43,0,0,1,7.71,13.35V269.51A15.42,15.42,0,0,1,1004.57,282.86Z" transform="translate(-563.92 -16.35)"></path><path class="cls-8" d="M1012.25,279.77a10.16,10.16,0,0,1-5.1-1.39L878,203.79a10.26,10.26,0,0,1-5.12-8.87V76.29A10.29,10.29,0,0,1,883.11,66a10.06,10.06,0,0,1,5.1,1.39L1017.4,142a10.26,10.26,0,0,1,5.12,8.87V269.51A10.29,10.29,0,0,1,1012.25,279.77ZM883.11,67a9.28,9.28,0,0,0-9.27,9.26V194.92a9.26,9.26,0,0,0,4.62,8l129.19,74.59a9.08,9.08,0,0,0,4.6,1.26,9.28,9.28,0,0,0,9.27-9.26V150.88a9.26,9.26,0,0,0-4.62-8L887.71,68.29A9.08,9.08,0,0,0,883.11,67Z" transform="translate(-563.92 -16.35)"></path><path class="cls-9" d="M1006.09,168.21,894.53,103.8C892,102.36,890,98.46,890,95.14h0c0-3.32,2-4.86,4.53-3.42l111.56,64.41c2.49,1.44,4.53,5.33,4.53,8.65h0C1010.62,168.1,1008.58,169.64,1006.09,168.21Z" transform="translate(-563.92 -16.35)"></path><path class="cls-10" d="M931.56,187l-35.39-20.44c-2.5-1.44-4.54-5.34-4.54-8.66V118.64c0-3.32,2-4.87,4.54-3.43l35.39,20.44c2.49,1.44,4.53,5.34,4.53,8.66v39.25C936.09,186.88,934.05,188.42,931.56,187Z" transform="translate(-563.92 -16.35)"></path><path class="cls-11" d="M998.08,225.39,962.68,205c-2.49-1.44-4.53-5.33-4.53-8.66V157c0-3.32,2-4.86,4.53-3.42l35.4,20.43c2.49,1.44,4.53,5.34,4.53,8.66V222C1002.61,225.29,1000.57,226.83,998.08,225.39Z" transform="translate(-563.92 -16.35)"></path><path class="cls-12" d="M1004.52,246.4,889.73,180.12a3.06,3.06,0,0,1-1.29-2.46h0c0-.95.57-1.39,1.29-1L1004.52,243a3.08,3.08,0,0,1,1.28,2.46h0C1005.8,246.37,1005.23,246.81,1004.52,246.4Z" transform="translate(-563.92 -16.35)"></path><path class="cls-13" d="M1004.52,253,889.73,186.67a3.06,3.06,0,0,1-1.29-2.46h0c0-1,.57-1.39,1.29-1l114.79,66.27a3.08,3.08,0,0,1,1.28,2.46h0C1005.8,252.92,1005.23,253.36,1004.52,253Z" transform="translate(-563.92 -16.35)"></path><path class="cls-14" d="M1004.52,259.5,889.73,193.23a3.08,3.08,0,0,1-1.29-2.47h0c0-.95.57-1.38,1.29-1l114.79,66.27a3.1,3.1,0,0,1,1.28,2.47h0C1005.8,259.47,1005.23,259.91,1004.52,259.5Z" transform="translate(-563.92 -16.35)"></path><path class="cls-15" d="M688.6,373.83v-227c0-6.28,3.81-13.57,8.52-16.29l97.27-56.16c4.71-2.71,8.52.17,8.52,6.45v227c0,6.27-3.81,13.56-8.52,16.28l-97.27,56.16C692.41,383,688.6,380.1,688.6,373.83Z" transform="translate(-563.92 -16.35)"></path><path class="cls-16" d="M800,74h0l-.18-.1Z" transform="translate(-563.92 -16.35)"></path><path class="cls-16" d="M690.92,380.27c-1.43-1.21-2.32-3.43-2.32-6.44v-227c0-6.28,3.81-13.57,8.52-16.29l97.27-56.16c2.06-1.18,3.94-1.3,5.42-.53l-5.2-3c-1.54-1.22-3.7-1.29-6.09.09l-97.27,56.16c-4.7,2.72-8.52,10-8.52,16.28v227c0,3.77,1.38,6.29,3.49,7.14v0Z" transform="translate(-563.92 -16.35)"></path><path class="cls-16" d="M692.3,381.05h0Z" transform="translate(-563.92 -16.35)"></path><path class="cls-17" d="M692.32,381.06ZM793.57,74.11,696.3,130.27c-4.7,2.72-8.52,10-8.52,16.28v227a8.79,8.79,0,0,0,1.84,6l1.3.75c-1.43-1.21-2.32-3.43-2.32-6.44v-227c0-6.28,3.81-13.57,8.52-16.29l97.27-56.16a6.13,6.13,0,0,1,4.36-.91A5.66,5.66,0,0,0,793.57,74.11Zm6.25-.25L800,74h0Z" transform="translate(-563.92 -16.35)"></path><path class="cls-18" d="M793.75,79,777,88.73l-2.52,6.32a14.78,14.78,0,0,1-5.82,7.18l-45.75,26.41c-2.38,1.38-4.6,1.21-5.82-.45l-2.52-3.41-16.78,9.69a12,12,0,0,0-5.44,9.42V372.47c0,3.47,2.43,4.87,5.44,3.14l96-55.43a12,12,0,0,0,5.44-9.42V82.18C799.19,78.72,796.76,77.31,793.75,79Z" transform="translate(-563.92 -16.35)"></path><path class="cls-19" d="M760.62,102.17l-29.73,17.17c-.53.3-1,0-1-.74h0a2.31,2.31,0,0,1,1-1.84l29.73-17.17c.53-.31,1,0,1,.73h0A2.32,2.32,0,0,1,760.62,102.17Z" transform="translate(-563.92 -16.35)"></path><path class="cls-20" d="M686.16,206.49l-.14-.08a2.38,2.38,0,0,1-1-1.88V183.71c0-.72.44-1.05,1-.74l.14.08a2.38,2.38,0,0,1,1,1.88v20.82C687.14,206.47,686.7,206.8,686.16,206.49Z" transform="translate(-563.92 -16.35)"></path><path class="cls-21" d="M685.07,206.49l-.14-.08a2.38,2.38,0,0,1-1-1.88V183.71c0-.72.44-1.05,1-.74l.14.08a2.38,2.38,0,0,1,1,1.88v20.82C686.05,206.47,685.61,206.8,685.07,206.49Z" transform="translate(-563.92 -16.35)"></path><path class="cls-21" d="M781.92,77.63a1,1,0,0,1,0,2,3.69,3.69,0,0,1-3.39,0,1,1,0,0,1,0-2A3.69,3.69,0,0,1,781.92,77.63Z" transform="translate(-563.92 -16.35)"></path><path class="cls-20" d="M781.92,77.63a3.69,3.69,0,0,0-3.39,0,1.69,1.69,0,0,0-.54.47l.21-.15a3.75,3.75,0,0,1,3.39,0c.7.41.87,1,.54,1.49C782.84,78.9,782.78,78.12,781.92,77.63Z" transform="translate(-563.92 -16.35)"></path><g class="cls-22"><polygon class="cls-23" points="235.24 173.94 235.24 97.78 128.37 204.66 128.37 280.82 235.24 173.94"></polygon><path class="cls-23" d="M692.29,198.63,799.17,91.75V82.18c0-3.46-2.44-4.87-5.44-3.14l-8.59,5-10.5,10.5-.22.55a14.73,14.73,0,0,1-5.82,7.18l-4,2.3-72.32,72.32Z" transform="translate(-563.92 -16.35)"></path><polygon class="cls-23" points="235.24 234.79 235.24 191.04 128.37 297.92 128.37 341.67 235.24 234.79"></polygon><polygon class="cls-23" points="235.24 274.18 235.24 264.17 148.84 350.57 172.52 336.9 235.24 274.18"></polygon></g><path class="cls-24" d="M768.63,102.23l-45.75,26.41c-2.38,1.38-4.6,1.21-5.82-.45l-2.52-3.41-16.78,9.69a11.19,11.19,0,0,0-3.92,4.19,9.93,9.93,0,0,1,2.82-2.55l16.79-9.69,2.52,3.4c1.22,1.66,3.44,1.83,5.82.46l45.75-26.41a13.92,13.92,0,0,0,4.78-5.06A12.86,12.86,0,0,1,768.63,102.23ZM793.75,79,777,88.73,776.45,90l16.21-9.36c3-1.73,5.44-.33,5.44,3.14V312.4a11,11,0,0,1-1.52,5.23,11.82,11.82,0,0,0,2.61-6.87V82.18C799.19,78.72,796.76,77.31,793.75,79Z" transform="translate(-563.92 -16.35)"></path><path class="cls-6" d="M731.63,209l-29.47,17c-2.06,1.19-3.73-.07-3.73-2.81h0c0-2.74,1.67-5.93,3.73-7.12l29.47-17c2-1.19,3.72.07,3.72,2.81h0C735.35,204.6,733.68,207.78,731.63,209Z" transform="translate(-563.92 -16.35)"></path><path class="cls-6" d="M742.17,216.71l-40,23.1c-2.06,1.18-3.73-.08-3.73-2.82h0c0-2.74,1.67-5.93,3.73-7.12l40-23.1c2.06-1.18,3.72.08,3.72,2.82h0C745.89,212.33,744.23,215.52,742.17,216.71Z" transform="translate(-563.92 -16.35)"></path><path class="cls-6" d="M724.59,240.68l-22.43,12.95c-2.06,1.19-3.73-.08-3.73-2.82h0c0-2.74,1.67-5.93,3.73-7.11l22.43-12.95c2.06-1.19,3.72.07,3.72,2.81h0C728.31,236.3,726.65,239.49,724.59,240.68Z" transform="translate(-563.92 -16.35)"></path><path class="cls-25" d="M788.82,309.57l-84.49,48.79c-3.29,1.89-6-.14-6-4.52V307.68c0-4.38,2.69-9.52,6-11.42l84.49-48.78c3.29-1.9,6,.13,6,4.52v46.15C794.8,302.54,792.11,307.68,788.82,309.57Z" transform="translate(-563.92 -16.35)"></path><path class="cls-5" d="M794.91,114.16V110c0-3.62-2.54-5.09-5.67-3.28L704,155.87a12.53,12.53,0,0,0-5.68,9.83v4.21Z" transform="translate(-563.92 -16.35)"></path><path class="cls-3" d="M708.38,158.73a5.05,5.05,0,0,1-2.28,4c-1.26.73-2.29.14-2.29-1.32a5.08,5.08,0,0,1,2.29-4C707.36,156.69,708.38,157.28,708.38,158.73Z" transform="translate(-563.92 -16.35)"></path><path class="cls-3" d="M716.42,154.1a5,5,0,0,1-2.29,4c-1.26.73-2.28.14-2.28-1.31a5.05,5.05,0,0,1,2.28-4C715.39,152.05,716.42,152.64,716.42,154.1Z" transform="translate(-563.92 -16.35)"></path><path class="cls-3" d="M724.45,149.46a5,5,0,0,1-2.29,4c-1.26.73-2.28.13-2.28-1.32a5.05,5.05,0,0,1,2.28-4C723.43,147.41,724.45,148,724.45,149.46Z" transform="translate(-563.92 -16.35)"></path><path class="cls-23" d="M713.3,186.89l7.94,10c-6.37,8.29-14.81,11.55-19.55,7.54-2-1.68-3.15-4.5-3.32-8.06Z" transform="translate(-563.92 -16.35)"></path><path class="cls-3" d="M713.3,186.89l-14.93,9.51c-.25-5.36,1.8-11.86,5.51-17.47,3.57-5.41,8.29-9.4,12.77-10.79Z" transform="translate(-563.92 -16.35)"></path><path class="cls-5" d="M721.26,191.52l3.36-18.75c3.24-1,6.15-.6,8.24,1.18,5.17,4.37,4.18,15.9-2.19,25.54-.46.71-1,1.4-1.47,2.06Z" transform="translate(-563.92 -16.35)"></path><polygon class="cls-26" points="160.69 156.42 152.73 151.78 149.38 170.54 157.34 175.17 160.69 156.42"></polygon><polygon class="cls-27" points="168.08 156.97 168.08 156.97 168.08 156.97 168.08 156.97"></polygon><path class="cls-4" d="M732,173.33l-7.91-4.6a8.75,8.75,0,0,0-7.44-.59l8,4.63A8.77,8.77,0,0,1,732,173.33Z" transform="translate(-563.92 -16.35)"></path><path class="cls-4" d="M721.25,196.9l8,4.65-7.94-10-8-4.63,7.94,10Z" transform="translate(-563.92 -16.35)"></path><polygon class="cls-6" points="230.99 221.31 135.17 276.63 135.17 274.49 230.99 219.16 230.99 221.31"></polygon><polygon class="cls-6" points="230.99 194.09 135.17 249.41 135.17 247.27 230.99 191.95 230.99 194.09"></polygon><path class="cls-2" d="M755.24,253.21l-17.33,10c-1.4.81-2.53,0-2.53-1.92v-7.17a6.08,6.08,0,0,1,2.53-4.85l17.33-10c1.4-.81,2.54,0,2.54,1.92v7.17A6.09,6.09,0,0,1,755.24,253.21Z" transform="translate(-563.92 -16.35)"></path><path class="cls-2" d="M787.22,234.74l-17.33,10c-1.4.81-2.54-.05-2.54-1.92v-7.17a6.09,6.09,0,0,1,2.54-4.85l17.33-10c1.4-.81,2.53.05,2.53,1.92v7.17A6,6,0,0,1,787.22,234.74Z" transform="translate(-563.92 -16.35)"></path><path class="cls-28" d="M712.65,287.78a1.54,1.54,0,0,0,1.81,0l17.33-10a6,6,0,0,0,2.54-4.84v-7.17a2.31,2.31,0,0,0-.78-2l-8.47-6.05a1.54,1.54,0,0,0-1.81,0l-17.33,10a6.09,6.09,0,0,0-2.54,4.85v7.17a2.33,2.33,0,0,0,.78,2Z" transform="translate(-563.92 -16.35)"></path><path class="cls-2" d="M731.79,277.75l-17.33,10c-1.4.81-2.53-.05-2.53-1.92v-7.17a6.08,6.08,0,0,1,2.53-4.85l17.33-10c1.41-.81,2.54.05,2.54,1.92v7.17A6,6,0,0,1,731.79,277.75Z" transform="translate(-563.92 -16.35)"></path><path class="cls-6" d="M791.46,152.51,742.4,180.84c-1.84,1.06-3.32-.06-3.32-2.51V165.67a7.94,7.94,0,0,1,3.32-6.35L791.46,131c1.84-1.06,3.33.06,3.33,2.51v12.67A7.93,7.93,0,0,1,791.46,152.51Z" transform="translate(-563.92 -16.35)"></path><path class="cls-29" d="M760.9,164.69l-18.57,10.72c-.44.26-.8,0-.8-.6v-.05a1.93,1.93,0,0,1,.8-1.53l18.57-10.72c.44-.26.8,0,.8.6v0A1.93,1.93,0,0,1,760.9,164.69Z" transform="translate(-563.92 -16.35)"></path><path class="cls-30" d="M766.13,157.47l-23.8,13.74c-.44.26-.8,0-.8-.6v-.05a1.93,1.93,0,0,1,.8-1.53l23.8-13.74c.44-.26.8,0,.8.6v.05A1.93,1.93,0,0,1,766.13,157.47Z" transform="translate(-563.92 -16.35)"></path><path class="cls-31" d="M766.13,153.27,742.33,167c-.44.26-.8,0-.8-.6v0a1.93,1.93,0,0,1,.8-1.53l23.8-13.74c.44-.26.8,0,.8.6v.05A1.93,1.93,0,0,1,766.13,153.27Z" transform="translate(-563.92 -16.35)"></path><polygon class="cls-32" points="237.98 139.05 225.83 146.06 225.83 134.71 237.98 127.69 237.98 139.05"></polygon><polygon class="cls-33" points="237.98 127.69 237.9 127.74 225.95 120.73 225.95 120.64 213.81 127.65 213.81 139.01 225.83 146.06 225.83 134.71 237.98 127.69"></polygon><path class="cls-5" d="M801,208.07l-24.62,14.22c-2.21,1.27-4-.08-4-3v-27c0-2.94,1.8-6.37,4-7.64L801,170.39c2.21-1.28,4,.08,4,3v27C805,203.37,803.16,206.79,801,208.07Z" transform="translate(-563.92 -16.35)"></path><path class="cls-4" d="M772.32,219.26v-27c0-2.94,1.8-6.37,4-7.64L801,170.39a2.6,2.6,0,0,1,2.53-.26h0l-10-5.64a2.57,2.57,0,0,0-2.59.22l-24.63,14.22c-2.21,1.27-4,4.7-4,7.64v27c0,1.67.58,2.83,1.48,3.29l10,5.64h0C772.87,222,772.32,220.89,772.32,219.26Z" transform="translate(-563.92 -16.35)"></path><path class="cls-34" d="M790.86,195.49a13.14,13.14,0,0,0,3.7-8.46c0-3.77-2.65-5.3-5.92-3.42a13.09,13.09,0,0,0-5.92,10.25c0,2.87,1.53,4.44,3.69,4.2-5,4.07-8.88,11.31-9.11,17.55L800,202.51C799.75,196.54,795.91,193.74,790.86,195.49Z" transform="translate(-563.92 -16.35)"></path><path class="cls-23" d="M829.41,238.13l-34.67,19.34a6.73,6.73,0,0,1-6-.25l-20.2-11.66c-1.78-1-2-2.59-.44-3.48l34.68-19.34a6.73,6.73,0,0,1,6,.25L829,234.65C830.75,235.68,831,237.24,829.41,238.13Z" transform="translate(-563.92 -16.35)"></path><path class="cls-35" d="M830.42,331.36V236.9h0a1.92,1.92,0,0,1-1,1.23l-34.67,19.34a5.58,5.58,0,0,1-2.79.59v95a5.38,5.38,0,0,0,2.79-.59l34.67-19.34A1.68,1.68,0,0,0,830.42,331.36Z" transform="translate(-563.92 -16.35)"></path><path class="cls-36" d="M788.73,257.22l-20.2-11.66a2.68,2.68,0,0,1-1.44-1.7v94.46c-.16.76.33,1.6,1.44,2.24l20.2,11.66a7,7,0,0,0,3.22.84v-95A7,7,0,0,1,788.73,257.22Z" transform="translate(-563.92 -16.35)"></path><path class="cls-33" d="M788.73,257.22l-20.2-11.66a2.68,2.68,0,0,1-1.44-1.7v94.46c-.16.76.33,1.6,1.44,2.24l20.2,11.66a7,7,0,0,0,3.22.84v-95A7,7,0,0,1,788.73,257.22Z" transform="translate(-563.92 -16.35)"></path><path class="cls-23" d="M849.6,265.18l-34.67,19.91a6.75,6.75,0,0,1-6-.25L797.38,278c-1.78-1-2-2.59-.44-3.48l34.54-19.81a6.75,6.75,0,0,1,6,.25l11.66,6.78C850.94,262.73,851.13,264.29,849.6,265.18Z" transform="translate(-563.92 -16.35)"></path><path class="cls-37" d="M850.6,267.35V264h0a1.91,1.91,0,0,1-1,1.23l-34.67,19.91a5.6,5.6,0,0,1-2.8.59v3.94a5.6,5.6,0,0,0,2.8-.59l34.67-19.91A1.69,1.69,0,0,0,850.6,267.35Z" transform="translate(-563.92 -16.35)"></path><path class="cls-38" d="M808.91,284.84,797.38,278a2.68,2.68,0,0,1-1.44-1.7v3.39c-.16.76.33,1.61,1.44,2.25l11.53,6.88a7,7,0,0,0,3.22.84v-3.94A7,7,0,0,1,808.91,284.84Z" transform="translate(-563.92 -16.35)"></path><path class="cls-33" d="M808.91,284.84,797.38,278a2.68,2.68,0,0,1-1.44-1.7v3.39c-.16.76.33,1.61,1.44,2.25l11.53,6.88a7,7,0,0,0,3.22.84v-3.94A7,7,0,0,1,808.91,284.84Z" transform="translate(-563.92 -16.35)"></path><path class="cls-23" d="M864.42,285.83l-34.67,19.91a6.75,6.75,0,0,1-6-.25l-11.53-6.88c-1.78-1-2-2.59-.44-3.48l34.54-19.81a6.75,6.75,0,0,1,6,.25L864,282.36C865.76,283.38,866,284.94,864.42,285.83Z" transform="translate(-563.92 -16.35)"></path><path class="cls-39" d="M865.42,288v-3.4h0a1.91,1.91,0,0,1-1,1.23l-34.67,19.91a5.6,5.6,0,0,1-2.8.59v3.94a5.6,5.6,0,0,0,2.8-.59l34.67-19.91A1.69,1.69,0,0,0,865.42,288Z" transform="translate(-563.92 -16.35)"></path><path class="cls-40" d="M823.73,305.49l-11.53-6.88a2.68,2.68,0,0,1-1.44-1.7v3.39c-.16.77.33,1.61,1.44,2.25l11.53,6.88a7,7,0,0,0,3.22.84v-3.94A7,7,0,0,1,823.73,305.49Z" transform="translate(-563.92 -16.35)"></path><path class="cls-33" d="M823.73,305.49l-11.53-6.88a2.68,2.68,0,0,1-1.44-1.7v3.39c-.16.77.33,1.61,1.44,2.25l11.53,6.88a7,7,0,0,0,3.22.84v-3.94A7,7,0,0,1,823.73,305.49Z" transform="translate(-563.92 -16.35)"></path><path class="cls-23" d="M879.24,306.48l-34.67,19.91a6.75,6.75,0,0,1-6-.25L827,319.26c-1.78-1-2-2.59-.44-3.48L861.12,296a6.75,6.75,0,0,1,6,.25L878.8,303C880.58,304,880.77,305.59,879.24,306.48Z" transform="translate(-563.92 -16.35)"></path><path class="cls-41" d="M880.24,308.65v-3.4h0a1.91,1.91,0,0,1-1,1.23l-34.67,19.91a5.6,5.6,0,0,1-2.8.59v3.94a5.6,5.6,0,0,0,2.8-.59l34.67-19.91A1.69,1.69,0,0,0,880.24,308.65Z" transform="translate(-563.92 -16.35)"></path><path class="cls-42" d="M838.55,326.14,827,319.26a2.68,2.68,0,0,1-1.44-1.7V321c-.16.77.33,1.61,1.44,2.25l11.53,6.88a7,7,0,0,0,3.22.84V327A7,7,0,0,1,838.55,326.14Z" transform="translate(-563.92 -16.35)"></path><path class="cls-33" d="M838.55,326.14,827,319.26a2.68,2.68,0,0,1-1.44-1.7V321c-.16.77.33,1.61,1.44,2.25l11.53,6.88a7,7,0,0,0,3.22.84V327A7,7,0,0,1,838.55,326.14Z" transform="translate(-563.92 -16.35)"></path><path class="cls-23" d="M894.06,327.13,859.39,347a6.75,6.75,0,0,1-6-.25l-11.53-6.88c-1.78-1-2-2.59-.44-3.47l34.54-19.81a6.72,6.72,0,0,1,6,.24l11.66,6.79C895.4,324.68,895.59,326.24,894.06,327.13Z" transform="translate(-563.92 -16.35)"></path><path class="cls-43" d="M895.06,329.3v-3.4h0a1.88,1.88,0,0,1-1,1.23L859.39,347a5.6,5.6,0,0,1-2.8.59v3.94a5.6,5.6,0,0,0,2.8-.59l34.67-19.91A1.69,1.69,0,0,0,895.06,329.3Z" transform="translate(-563.92 -16.35)"></path><path class="cls-44" d="M853.37,346.79l-11.53-6.88a2.68,2.68,0,0,1-1.44-1.7v3.39c-.16.77.33,1.61,1.44,2.25l11.53,6.88a7,7,0,0,0,3.22.84v-3.94A7,7,0,0,1,853.37,346.79Z" transform="translate(-563.92 -16.35)"></path><path class="cls-33" d="M853.37,346.79l-11.53-6.88a2.68,2.68,0,0,1-1.44-1.7v3.39c-.16.77.33,1.61,1.44,2.25l11.53,6.88a7,7,0,0,0,3.22.84v-3.94A7,7,0,0,1,853.37,346.79Z" transform="translate(-563.92 -16.35)"></path><path class="cls-23" d="M908.88,347.78l-34.67,19.91a6.75,6.75,0,0,1-6-.25l-11.53-6.88c-1.78-1-2-2.59-.44-3.47l34.54-19.81a6.69,6.69,0,0,1,6,.25l11.66,6.78C910.22,345.33,910.41,346.89,908.88,347.78Z" transform="translate(-563.92 -16.35)"></path><path class="cls-45" d="M909.88,350v-3.4h0a1.88,1.88,0,0,1-1,1.23l-34.67,19.91a5.6,5.6,0,0,1-2.8.59v3.94a5.49,5.49,0,0,0,2.8-.59l34.67-19.91A1.69,1.69,0,0,0,909.88,350Z" transform="translate(-563.92 -16.35)"></path><path class="cls-46" d="M868.19,367.44l-11.53-6.88a2.68,2.68,0,0,1-1.44-1.7v3.4c-.16.76.33,1.6,1.44,2.24l11.53,6.88a7,7,0,0,0,3.22.84v-3.94A7,7,0,0,1,868.19,367.44Z" transform="translate(-563.92 -16.35)"></path><path class="cls-33" d="M868.19,367.44l-11.53-6.88a2.68,2.68,0,0,1-1.44-1.7v3.4c-.16.76.33,1.6,1.44,2.24l11.53,6.88a7,7,0,0,0,3.22.84v-3.94A7,7,0,0,1,868.19,367.44Z" transform="translate(-563.92 -16.35)"></path><path d="M791.42,244.21c0,.83,1.21,2,3.12,3.1,2.55,1.47,3.45,3.33,6.59,1.52.9-.52,1.28-.94,1.3-1.3v-1.95c.09-.91-2.09-1.48-3.92-2.53-2.55-1.47-5.29-2.27-6.59-1.52a.87.87,0,0,0-.5.72Z" transform="translate(-563.92 -16.35)"></path><path class="cls-47" d="M794.54,245.34c-2.54-1.47-3.93-3.05-2.62-3.81s4,.05,6.59,1.52,5.76,2,2.62,3.8S797.09,246.81,794.54,245.34Z" transform="translate(-563.92 -16.35)"></path><path d="M798.49,239.34c0,.83,1.21,2,3.12,3.1,2.55,1.47,3.45,3.33,6.59,1.51.9-.51,1.28-.93,1.3-1.29v-1.95c.09-.91-2.09-1.48-3.92-2.53-2.55-1.47-5.29-2.27-6.59-1.52a.87.87,0,0,0-.5.72Z" transform="translate(-563.92 -16.35)"></path><path class="cls-47" d="M801.61,240.47c-2.54-1.47-3.93-3.05-2.62-3.81s4,.05,6.59,1.52,5.77,2,2.62,3.8S804.16,241.93,801.61,240.47Z" transform="translate(-563.92 -16.35)"></path><path class="cls-48" d="M795.69,180.94h0a2.09,2.09,0,0,1,2.88.65l8.68,13.81a2.1,2.1,0,0,1-.65,2.88h0a2.1,2.1,0,0,1-2.88-.66L795,183.82A2.09,2.09,0,0,1,795.69,180.94Z" transform="translate(-563.92 -16.35)"></path><path class="cls-5" d="M801.38,196.05l2.8,4.46a3.24,3.24,0,0,0,4.46,1h0a3.23,3.23,0,0,0,1-4.45l-2.8-4.45S803.34,191.29,801.38,196.05Z" transform="translate(-563.92 -16.35)"></path><path class="cls-49" d="M802.34,244.69a1.43,1.43,0,0,0,.15-.64V222.24c0-1.38-1.43-2.51-3.17-2.51h0c-1.73,0-3.16,1.13-3.16,2.51V246a.79.79,0,0,0,.57.76C797.94,247.09,800.81,247.61,802.34,244.69Z" transform="translate(-563.92 -16.35)"></path><path class="cls-4" d="M809.43,239.57a1.35,1.35,0,0,0,.13-.63l-.48-21.81c0-1.38-1.47-2.48-3.21-2.44h0c-1.74,0-3.14,1.2-3.11,2.58l.52,23.71a.79.79,0,0,0,.58.75C805.08,242.07,808,242.53,809.43,239.57Z" transform="translate(-563.92 -16.35)"></path><path class="cls-2" d="M797.21,226.16a.54.54,0,0,0,.26.09c1.4.11,6.42-1,11.45-6.65a2.6,2.6,0,0,0,.68-1.63V201.89a2.63,2.63,0,0,0-1.13-2.45l-3.78-2.21a2.65,2.65,0,0,0-2.69.25l-5.15,3a8.37,8.37,0,0,0-3.79,6.55v16.17a.83.83,0,0,0,.37.78Z" transform="translate(-563.92 -16.35)"></path><path class="cls-50" d="M798.67,201.46a1.29,1.29,0,0,0,.78,1.1,4.17,4.17,0,0,0,3.77,0,1.33,1.33,0,0,0,.78-1.1V198a1.33,1.33,0,0,0-.78-1.1,4.17,4.17,0,0,0-3.77,0,1.29,1.29,0,0,0-.78,1.1Z" transform="translate(-563.92 -16.35)"></path><circle class="cls-48" cx="237.41" cy="176.01" r="7.34"></circle><path class="cls-48" d="M779.7,191.19h0a2.09,2.09,0,0,1,2.94-.22l11.79,10.69a2.09,2.09,0,0,1,.22,2.94h0a2.09,2.09,0,0,1-2.94.22l-11.79-10.68A2.1,2.1,0,0,1,779.7,191.19Z" transform="translate(-563.92 -16.35)"></path><path class="cls-5" d="M789,204l4,3.43a3.23,3.23,0,0,0,4.55-.34h0a3.24,3.24,0,0,0-.34-4.55l-4-3.44S789.49,198.89,789,204Z" transform="translate(-563.92 -16.35)"></path><path class="cls-51" d="M805.47,199.06c-2.32,1.35-4.09.32-4.71-.66-1.59-2.45-1.85-.81-2.79-2-1.24-2-1-4.8-2.68-6.08-2.46-1.84-1.79-5.5,4.63-7.13,8.63-2.2,12,8.67,6.65,14.95A3.51,3.51,0,0,1,805.47,199.06Z" transform="translate(-563.92 -16.35)"></path><path class="cls-48" d="M798.77,196.74c-.62.61-1.31.43-1.53-.41a3,3,0,0,1,.71-2.66.84.84,0,0,1,1.53.41A3,3,0,0,1,798.77,196.74Z" transform="translate(-563.92 -16.35)"></path><path class="cls-52" d="M804.36,378.4l-39.65,22.89a7,7,0,0,1-6.28-.26l-41.54-24c-1.85-1.07-2-2.7-.45-3.63l39.65-22.89a7,7,0,0,1,6.29.26l41.53,24C805.76,375.84,806,377.47,804.36,378.4Z" transform="translate(-563.92 -16.35)"></path><path class="cls-33" d="M804.36,378.4l-39.65,22.89a7,7,0,0,1-6.28-.26l-41.54-24a2.55,2.55,0,0,1-1.53-2.09h0v1.57a2.56,2.56,0,0,0,1.53,2.12l41.54,24a7,7,0,0,0,6.28.27L804.36,380a1.85,1.85,0,0,0,1.08-1.53v-1.57h0A1.87,1.87,0,0,1,804.36,378.4Z" transform="translate(-563.92 -16.35)"></path><path class="cls-53" d="M750.34,373.06l-16,9.23a2.38,2.38,0,0,1-2.15-.09l-10.52-6.07c-.63-.37-.7-.92-.15-1.24l16-9.23a2.36,2.36,0,0,1,2.14.09l10.52,6.07C750.82,372.19,750.89,372.74,750.34,373.06Z" transform="translate(-563.92 -16.35)"></path><path class="cls-54" d="M777.5,364.49l-37.06,21.39a2.19,2.19,0,0,1-2-.08h0c-.59-.34-.65-.85-.14-1.15l37.06-21.4a2.2,2.2,0,0,1,2,.09h0C778,363.68,778,364.19,777.5,364.49Z" transform="translate(-563.92 -16.35)"></path><path class="cls-55" d="M781.57,366.83l-37.06,21.4a2.19,2.19,0,0,1-2-.08h0c-.59-.34-.66-.85-.15-1.15l37.07-21.4a2.23,2.23,0,0,1,2,.08h0C782,366,782.08,366.54,781.57,366.83Z" transform="translate(-563.92 -16.35)"></path><path class="cls-56" d="M785.64,369.18l-37.06,21.4a2.19,2.19,0,0,1-2-.08h0c-.59-.34-.66-.86-.15-1.15L783.51,368a2.23,2.23,0,0,1,2,.08h0C786.09,368.37,786.15,368.89,785.64,369.18Z" transform="translate(-563.92 -16.35)"></path><path class="cls-57" d="M768.77,383.62l-16.12,9.31a2.19,2.19,0,0,1-2-.08h0c-.59-.34-.66-.86-.15-1.15l16.13-9.31a2.19,2.19,0,0,1,2,.08h0C769.22,382.81,769.28,383.33,768.77,383.62Z" transform="translate(-563.92 -16.35)"></path><path class="cls-58" d="M771.28,361l-16,9.23a2.36,2.36,0,0,1-2.14-.09L742.63,364c-.63-.37-.7-.92-.15-1.24l16-9.23a2.41,2.41,0,0,1,2.15.09l10.52,6.08C771.76,360.1,771.83,360.65,771.28,361Z" transform="translate(-563.92 -16.35)"></path><path class="cls-59" d="M799.42,377.22l-36.93,21.32a2.42,2.42,0,0,1-2.14-.09l-5-2.91c-.64-.37-.71-.92-.16-1.24L792.09,373a2.38,2.38,0,0,1,2.14.08l5,2.91C799.9,376.35,800,376.9,799.42,377.22Z" transform="translate(-563.92 -16.35)"></path><path class="cls-33" d="M804.36,381.24l-39.65,22.89a7,7,0,0,1-6.28-.26l-41.54-24a2.53,2.53,0,0,1-1.53-2.09h0v1.57a2.54,2.54,0,0,0,1.53,2.12l41.54,24a7,7,0,0,0,6.28.26l39.65-22.89a1.87,1.87,0,0,0,1.08-1.54v-1.57h0A1.87,1.87,0,0,1,804.36,381.24Z" transform="translate(-563.92 -16.35)"></path><path class="cls-60" d="M804.36,380l-39.65,22.9a7,7,0,0,1-6.28-.27l-41.54-24a3.25,3.25,0,0,1-1.38-1.42c-.4.87.07,1.91,1.38,2.66l41.54,24a7,7,0,0,0,6.28.26l39.65-22.89a1.7,1.7,0,0,0,.94-2.22A2.12,2.12,0,0,1,804.36,380Z" transform="translate(-563.92 -16.35)"></path><path class="cls-33" d="M804.36,384.08,764.71,407a7,7,0,0,1-6.28-.26l-41.54-24a2.55,2.55,0,0,1-1.53-2.09h0v1.57a2.56,2.56,0,0,0,1.53,2.12l41.54,24a7,7,0,0,0,6.28.26l39.65-22.89a1.87,1.87,0,0,0,1.08-1.54v-1.57h0A1.87,1.87,0,0,1,804.36,384.08Z" transform="translate(-563.92 -16.35)"></path><path class="cls-61" d="M804.36,382.83l-39.65,22.89a7,7,0,0,1-6.28-.26l-41.54-24a3.25,3.25,0,0,1-1.38-1.42c-.4.87.07,1.91,1.38,2.66l41.54,24a7,7,0,0,0,6.28.26l39.65-22.89a1.7,1.7,0,0,0,.94-2.22A2.12,2.12,0,0,1,804.36,382.83Z" transform="translate(-563.92 -16.35)"></path><path class="cls-33" d="M804.36,386.92l-39.65,22.89a7,7,0,0,1-6.28-.26l-41.54-24a2.55,2.55,0,0,1-1.53-2.09h0v1.57a2.56,2.56,0,0,0,1.53,2.12l41.54,24a7,7,0,0,0,6.28.26l39.65-22.89a1.87,1.87,0,0,0,1.08-1.54v-1.57h0A1.87,1.87,0,0,1,804.36,386.92Z" transform="translate(-563.92 -16.35)"></path><path class="cls-62" d="M804.36,385.67l-39.65,22.89a7,7,0,0,1-6.28-.26l-41.54-24a3.22,3.22,0,0,1-1.38-1.43c-.4.88.07,1.91,1.38,2.67l41.54,24a7,7,0,0,0,6.28.26l39.65-22.89a1.7,1.7,0,0,0,.94-2.22A2.12,2.12,0,0,1,804.36,385.67Z" transform="translate(-563.92 -16.35)"></path><path class="cls-33" d="M804.36,389.76l-39.65,22.89a7,7,0,0,1-6.28-.26l-41.54-24a2.55,2.55,0,0,1-1.53-2.09h0v1.57a2.56,2.56,0,0,0,1.53,2.12l41.54,24a7,7,0,0,0,6.28.27l39.65-22.9a1.85,1.85,0,0,0,1.08-1.53v-1.57h0A1.87,1.87,0,0,1,804.36,389.76Z" transform="translate(-563.92 -16.35)"></path><path class="cls-63" d="M804.36,388.51,764.71,411.4a7,7,0,0,1-6.28-.26l-41.54-24a3.15,3.15,0,0,1-1.38-1.42c-.4.88.07,1.91,1.38,2.67l41.54,24a7,7,0,0,0,6.28.26l39.65-22.89a1.7,1.7,0,0,0,.94-2.22A2.12,2.12,0,0,1,804.36,388.51Z" transform="translate(-563.92 -16.35)"></path><path class="cls-33" d="M804.36,392.6l-39.65,22.89a7,7,0,0,1-6.28-.26l-41.54-24a2.56,2.56,0,0,1-1.53-2.09h0v1.56a2.56,2.56,0,0,0,1.53,2.13l41.54,24a7,7,0,0,0,6.28.26l39.65-22.89a1.85,1.85,0,0,0,1.08-1.53v-1.57h0A1.87,1.87,0,0,1,804.36,392.6Z" transform="translate(-563.92 -16.35)"></path><path class="cls-64" d="M804.36,391.35l-39.65,22.89a7,7,0,0,1-6.28-.26l-41.54-24a3.15,3.15,0,0,1-1.38-1.42c-.4.88.07,1.91,1.38,2.67l41.54,24a7,7,0,0,0,6.28.26l39.65-22.89a1.71,1.71,0,0,0,.94-2.23A2.09,2.09,0,0,1,804.36,391.35Z" transform="translate(-563.92 -16.35)"></path><path class="cls-33" d="M804.36,395.44l-39.65,22.89a7,7,0,0,1-6.28-.26l-41.54-24a2.56,2.56,0,0,1-1.53-2.1h0v1.57a2.53,2.53,0,0,0,1.53,2.12l41.54,24a7,7,0,0,0,6.28.26L804.36,397a1.87,1.87,0,0,0,1.08-1.53v-1.57h0A1.88,1.88,0,0,1,804.36,395.44Z" transform="translate(-563.92 -16.35)"></path><path class="cls-65" d="M804.36,394.19l-39.65,22.89a7,7,0,0,1-6.28-.26l-41.54-24a3.15,3.15,0,0,1-1.38-1.42c-.4.87.07,1.91,1.38,2.67l41.54,24a7,7,0,0,0,6.28.26l39.65-22.89a1.71,1.71,0,0,0,.94-2.23A2.09,2.09,0,0,1,804.36,394.19Z" transform="translate(-563.92 -16.35)"></path><path class="cls-23" d="M900,306.61l39.65,22.89a7,7,0,0,0,6.29-.26l41.53-24c1.85-1.07,2.06-2.7.45-3.63l-39.65-22.89A7,7,0,0,0,942,279l-41.53,24C898.6,304.05,898.4,305.68,900,306.61Z" transform="translate(-563.92 -16.35)"></path><path class="cls-33" d="M900,306.61l39.65,22.89a7,7,0,0,0,6.29-.26l41.53-24a2.55,2.55,0,0,0,1.53-2.09h0v1.57a2.52,2.52,0,0,1-1.53,2.12l-41.53,24a7,7,0,0,1-6.29.27L900,308.2a1.87,1.87,0,0,1-1.08-1.53V305.1h0A1.89,1.89,0,0,0,900,306.61Z" transform="translate(-563.92 -16.35)"></path><path class="cls-66" d="M926.86,292.7l37.06,21.39a2.22,2.22,0,0,0,2-.08h0c.58-.34.65-.85.14-1.15L929,291.46a2.23,2.23,0,0,0-2,.08h0C926.41,291.89,926.35,292.4,926.86,292.7Z" transform="translate(-563.92 -16.35)"></path><path class="cls-67" d="M922.79,295l37.06,21.4a2.22,2.22,0,0,0,2-.08h0c.59-.34.65-.86.14-1.15l-37.06-21.4a2.25,2.25,0,0,0-2,.08h0C922.34,294.23,922.28,294.75,922.79,295Z" transform="translate(-563.92 -16.35)"></path><path class="cls-68" d="M918.72,297.39l37.06,21.4a2.21,2.21,0,0,0,2-.08h0c.59-.34.65-.86.14-1.15l-37.06-21.4a2.25,2.25,0,0,0-2,.08h0C918.27,296.58,918.21,297.1,918.72,297.39Z" transform="translate(-563.92 -16.35)"></path><path class="cls-69" d="M935.59,311.83l16.13,9.31a2.19,2.19,0,0,0,2-.08h0c.59-.34.65-.86.14-1.15l-16.12-9.31a2.22,2.22,0,0,0-2,.08h0C935.14,311,935.08,311.54,935.59,311.83Z" transform="translate(-563.92 -16.35)"></path><path class="cls-70" d="M933.08,289.18,970,310.53a2.35,2.35,0,0,0,2.14-.09l10.52-6.07c.64-.37.7-.92.16-1.24L945.9,281.78a2.35,2.35,0,0,0-2.14.09L933.24,288C932.6,288.31,932.53,288.86,933.08,289.18Z" transform="translate(-563.92 -16.35)"></path><path class="cls-71" d="M905,305.43l36.92,21.32a2.42,2.42,0,0,0,2.14-.09l5-2.91c.63-.37.7-.92.15-1.24l-36.92-21.32a2.44,2.44,0,0,0-2.15.09l-5,2.91C904.47,304.56,904.4,305.11,905,305.43Z" transform="translate(-563.92 -16.35)"></path><path class="cls-33" d="M900,309.45l39.65,22.89a7,7,0,0,0,6.29-.26l41.53-24A2.53,2.53,0,0,0,989,306h0v1.57a2.52,2.52,0,0,1-1.53,2.12l-41.53,24a7,7,0,0,1-6.29.26L900,311.05a1.89,1.89,0,0,1-1.08-1.54v-1.57h0A1.89,1.89,0,0,0,900,309.45Z" transform="translate(-563.92 -16.35)"></path><path class="cls-72" d="M900,308.2l39.65,22.9a7,7,0,0,0,6.29-.27l41.53-24a3.14,3.14,0,0,0,1.38-1.42c.4.87-.07,1.91-1.38,2.66l-41.53,24a7,7,0,0,1-6.29.26L900,309.45a1.7,1.7,0,0,1-.94-2.22A2.23,2.23,0,0,0,900,308.2Z" transform="translate(-563.92 -16.35)"></path><path class="cls-33" d="M900,312.29l39.65,22.89a7,7,0,0,0,6.29-.26l41.53-24a2.55,2.55,0,0,0,1.53-2.09h0v1.57a2.52,2.52,0,0,1-1.53,2.12l-41.53,24a7,7,0,0,1-6.29.26L900,313.89a1.89,1.89,0,0,1-1.08-1.54v-1.57h0A1.89,1.89,0,0,0,900,312.29Z" transform="translate(-563.92 -16.35)"></path><path class="cls-73" d="M900,311l39.65,22.89a7,7,0,0,0,6.29-.26l41.53-24a3.14,3.14,0,0,0,1.38-1.42c.4.87-.07,1.9-1.38,2.66l-41.53,24a7,7,0,0,1-6.29.26L900,312.29a1.7,1.7,0,0,1-.94-2.22A2.23,2.23,0,0,0,900,311Z" transform="translate(-563.92 -16.35)"></path><path class="cls-33" d="M900,315.13,939.65,338a7,7,0,0,0,6.29-.26l41.53-24a2.55,2.55,0,0,0,1.53-2.09h0v1.57a2.52,2.52,0,0,1-1.53,2.12l-41.53,24a7,7,0,0,1-6.29.27L900,316.72a1.87,1.87,0,0,1-1.08-1.53v-1.57h0A1.89,1.89,0,0,0,900,315.13Z" transform="translate(-563.92 -16.35)"></path><path class="cls-74" d="M900,313.88l39.65,22.89a7,7,0,0,0,6.29-.26l41.53-24a3.05,3.05,0,0,0,1.38-1.42c.4.88-.07,1.91-1.38,2.67l-41.53,24a7,7,0,0,1-6.29.26L900,315.13a1.7,1.7,0,0,1-.94-2.22A2.23,2.23,0,0,0,900,313.88Z" transform="translate(-563.92 -16.35)"></path><ellipse class="cls-23" cx="267.43" cy="421.08" rx="20.58" ry="11.88"></ellipse><path class="cls-75" d="M845.91,445.84c-8,4.64-21.07,4.64-29.11,0-4-2.3-6-5.32-6-8.33v7.33c0,3.06,2,6.13,6,8.47,8,4.64,21.07,4.64,29.11,0,4.05-2.34,6.05-5.41,6-8.47v-7.33C851.9,440.52,849.89,443.54,845.91,445.84Z" transform="translate(-563.92 -16.35)"></path><path class="cls-76" d="M818.72,434.16c7-4,18.29-4,25.27,0a10.26,10.26,0,0,1,4.89,5.29c1.12-3.27-.51-6.78-4.89-9.31-7-4-18.29-4-25.27,0-4.38,2.53-6,6-4.89,9.31A10.26,10.26,0,0,1,818.72,434.16Z" transform="translate(-563.92 -16.35)"></path><path class="cls-3" d="M844,434.16c-7-4-18.29-4-25.27,0a10.28,10.28,0,0,0-4.89,5.28,10.26,10.26,0,0,0,4.89,5.29c7,4,18.29,4,25.27,0a10.26,10.26,0,0,0,4.89-5.29A10.32,10.32,0,0,0,844,434.16Z" transform="translate(-563.92 -16.35)"></path><path class="cls-3" d="M829.83,360.31h-2.34V358a.78.78,0,1,0-1.56,0v2.34h-2.34a.78.78,0,0,0,0,1.56h2.34v2.35a.78.78,0,0,0,1.56,0v-2.35h2.34a.78.78,0,0,0,0-1.56Z" transform="translate(-563.92 -16.35)"></path><path class="cls-3" d="M842.63,379.59h-2.34v-2.34a.78.78,0,0,0-1.56,0v2.34h-2.34a.78.78,0,1,0,0,1.56h2.34v2.34a.78.78,0,0,0,1.56,0v-2.34h2.34a.78.78,0,0,0,0-1.56Z" transform="translate(-563.92 -16.35)"></path><path class="cls-3" d="M827.59,404.35h-2.34V402a.78.78,0,0,0-1.56,0v2.34h-2.34a.78.78,0,0,0-.78.78.77.77,0,0,0,.78.77h2.34v2.35a.78.78,0,0,0,1.56,0V405.9h2.34a.77.77,0,0,0,.78-.77A.78.78,0,0,0,827.59,404.35Z" transform="translate(-563.92 -16.35)"></path><path class="cls-3" d="M838.19,422.75h-2.34v-2.34a.78.78,0,1,0-1.56,0v2.34H832a.78.78,0,0,0,0,1.56h2.34v2.34a.78.78,0,1,0,1.56,0v-2.34h2.34a.78.78,0,0,0,0-1.56Z" transform="translate(-563.92 -16.35)"></path><circle class="cls-5" cx="271.15" cy="352.55" r="1.66"></circle><path class="cls-5" d="M842.83,395.75a1.66,1.66,0,1,1-1.66-1.66A1.66,1.66,0,0,1,842.83,395.75Z" transform="translate(-563.92 -16.35)"></path><path class="cls-5" d="M830.37,414.07a1.66,1.66,0,1,1-1.66-1.66A1.66,1.66,0,0,1,830.37,414.07Z" transform="translate(-563.92 -16.35)"></path><path class="cls-5" d="M836,401.23a1.66,1.66,0,1,1-1.66-1.66A1.67,1.67,0,0,1,836,401.23Z" transform="translate(-563.92 -16.35)"></path><path class="cls-5" d="M823.24,395.75a1.66,1.66,0,1,1-1.66-1.66A1.66,1.66,0,0,1,823.24,395.75Z" transform="translate(-563.92 -16.35)"></path><path class="cls-5" d="M829.58,380.75a1.66,1.66,0,1,1-1.66-1.66A1.66,1.66,0,0,1,829.58,380.75Z" transform="translate(-563.92 -16.35)"></path><path class="cls-5" d="M841.17,356.68a1.66,1.66,0,1,1-1.66-1.66A1.67,1.67,0,0,1,841.17,356.68Z" transform="translate(-563.92 -16.35)"></path><path class="cls-5" d="M824.47,351.65a1.66,1.66,0,1,1-1.66-1.66A1.66,1.66,0,0,1,824.47,351.65Z" transform="translate(-563.92 -16.35)"></path><rect class="cls-4" x="818.73" y="371.56" width="5.9" height="5.9" transform="translate(-588.08 674.35) rotate(-45)"></rect><rect class="cls-4" x="831.36" y="343.3" width="5.9" height="5.9" transform="translate(-564.39 675.01) rotate(-45)"></rect><rect class="cls-4" x="838.22" y="405.57" width="5.9" height="5.9" transform="translate(-606.42 698.1) rotate(-45)"></rect><rect class="cls-4" x="826.63" y="387.42" width="5.9" height="5.9" transform="translate(-596.98 684.58) rotate(-45)"></rect><path class="cls-77" d="M813.52,437c-.19,2.78,1.53,5.59,5.2,7.71,7,4,18.29,4,25.27,0,3.67-2.12,5.39-4.93,5.2-7.71V310.85c.19-2.78-1.53-5.59-5.2-7.71-7-4-18.29-4-25.27,0-3.67,2.12-5.39,4.93-5.2,7.71Z" transform="translate(-563.92 -16.35)"></path><path class="cls-78" d="M687.39,238.33l-73,42.16c-5.72,3.3-10.39,11.4-10.39,18v8.76c0,6.6,4.67,9.3,10.39,6l54.35-31.37L665.41,299l18.81-26.11,3.17-1.84c5.72-3.3,10.39-11.4,10.39-18v-8.76C697.78,237.73,693.11,235,687.39,238.33Z" transform="translate(-563.92 -16.35)"></path><path class="cls-79" d="M686.39,252.63l-71,41c-.74.43-1.34,0-1.34-1h0a3.19,3.19,0,0,1,1.34-2.56l71-41c.74-.43,1.34,0,1.34,1h0A3.19,3.19,0,0,1,686.39,252.63Z" transform="translate(-563.92 -16.35)"></path><path class="cls-80" d="M650,282.89,615.19,303c-.64.37-1.16,0-1.16-.88v-.47a2.79,2.79,0,0,1,1.16-2.22L650,279.31c.64-.37,1.16,0,1.16.88v.47A2.8,2.8,0,0,1,650,282.89Z" transform="translate(-563.92 -16.35)"></path><path d="M728.91,284.55c0,.26.19.49.54.72.1.06,0-1.44.34-1.19.1.07,4.91,3.82,7.6,3.13a.57.57,0,0,0,.4-.58V286c0-.68-1-1.72-2.52-3.22-1.69-1.66-2.77-2.69-5.31-1.23-.73.42-1,.74-1,1Z" transform="translate(-563.92 -16.35)"></path><path class="cls-81" d="M735.27,282.81c2.05,2,3.17,3.17,2.12,3.78s-3.16-.31-5.32-1.94c-1.89-1.43-4.65-1.6-2.11-3.07S733.58,281.15,735.27,282.81Z" transform="translate(-563.92 -16.35)"></path><path class="cls-82" d="M733.23,281.67l-.13-15.75a1.85,1.85,0,0,0-1.19-1.71l-1.23-.48-5.18,3.44,2.53,1.29a24.13,24.13,0,0,0,.77,8.44s.87,1.77.7,5.91C729.5,282.81,732.26,283.67,733.23,281.67Z" transform="translate(-563.92 -16.35)"></path><path d="M721.35,288.31c0,.27.18.5.54.72.1.07,0-1.43.33-1.18.1.07,4.92,3.82,7.6,3.13a.58.58,0,0,0,.41-.58v-.6c0-.69-1-1.73-2.52-3.23-1.7-1.65-2.78-2.68-5.32-1.22-.72.42-1,.73-1,1Z" transform="translate(-563.92 -16.35)"></path><path class="cls-81" d="M727.71,286.57c2,2,3.17,3.18,2.11,3.79s-3.15-.31-5.31-1.94c-1.89-1.43-4.65-1.6-2.12-3.07S726,284.92,727.71,286.57Z" transform="translate(-563.92 -16.35)"></path><path class="cls-82" d="M725.65,285.62l-.15-18.45-6.1,2,1.05,3a22,22,0,0,0,.77,8.08s.87,1.78.69,5.91C721.91,286.15,724.15,287.42,725.65,285.62Z" transform="translate(-563.92 -16.35)"></path><path class="cls-83" d="M720.19,248.4s6.8-6.18,2.65-17.16l-3.18,11.4Z" transform="translate(-563.92 -16.35)"></path><path class="cls-82" d="M728.24,263.45h0a2,2,0,0,1-2.49-1.35l-5.44-18.56a2,2,0,0,1,1.35-2.48h0a2,2,0,0,1,2.48,1.35L729.59,261A2,2,0,0,1,728.24,263.45Z" transform="translate(-563.92 -16.35)"></path><path class="cls-84" d="M722.68,258.52l9.23,5.69s-3.21-.79-11.46,8l-9.08-5.24Z" transform="translate(-563.92 -16.35)"></path><path class="cls-85" d="M712.56,267.72a.72.72,0,0,0,.26.08c1.34.1,6.14-.94,11-6.37a2.53,2.53,0,0,0,.65-1.56V244.49a2.54,2.54,0,0,0-1.08-2.35L719.73,240a2.53,2.53,0,0,0-2.58.23l-4.93,2.85a8,8,0,0,0-3.63,6.28v15.48a.79.79,0,0,0,.35.74Z" transform="translate(-563.92 -16.35)"></path><path class="cls-50" d="M713.11,244.07a1.27,1.27,0,0,0,.74,1.06,4,4,0,0,0,3.61,0,1.26,1.26,0,0,0,.75-1.06v-3.35a1.24,1.24,0,0,0-.75-1.06,4,4,0,0,0-3.61,0,1.25,1.25,0,0,0-.74,1.06Z" transform="translate(-563.92 -16.35)"></path><circle class="cls-82" cx="151.74" cy="219.01" r="7.02"></circle><path class="cls-83" d="M717.74,248.4s-5.22-5.76-1.6-16.42l6.5,2.24s2.24-5.55-5.11-7.15c0,0-4.91-1.06-6.61,3,0,0-3.95.32-2.46,8.42C708.46,238.48,708.68,246.16,717.74,248.4Z" transform="translate(-563.92 -16.35)"></path><path class="cls-86" d="M710.79,244.28" transform="translate(-563.92 -16.35)"></path><path class="cls-87" d="M720.45,272.16" transform="translate(-563.92 -16.35)"></path><polygon class="cls-33" points="170.91 247.01 157.68 254.63 147.53 249.09 161.07 241.34 170.91 247.01"></polygon><polygon class="cls-88" points="170.91 247.01 172.99 233.74 158.3 242.22 157.68 254.63 170.91 247.01"></polygon><path class="cls-82" d="M724.22,263.92h0a2,2,0,0,1-2.82-.23l-12.49-14.63a2,2,0,0,1,.22-2.82h0a2,2,0,0,1,2.82.23l12.49,14.63A2,2,0,0,1,724.22,263.92Z" transform="translate(-563.92 -16.35)"></path><path class="cls-89" d="M827.36,276.77c-.24.11-.33.4-.35.8,0,.12,1.2-.69,1.16-.28,0,.12-.88,6,1,7.91a.54.54,0,0,0,.68.06l.51-.28c.6-.3,1-1.65,1.52-3.67.59-2.22.95-3.62-1.5-5.07-.7-.41-1.1-.51-1.33-.38Z" transform="translate(-563.92 -16.35)"></path><path class="cls-81" d="M831.86,281.31c-.71,2.69-1.17,4.2-2.18,3.6s-1.25-2.82-.9-5.42c.3-2.27-.87-4.69,1.58-3.25S832.45,279.09,831.86,281.31Z" transform="translate(-563.92 -16.35)"></path><path class="cls-90" d="M847.63,264.15l-5,1.84-2,2.32a21.54,21.54,0,0,0-6.46,4.5s-1.08,1.58-4.65,3.41c0,0,0,2.5,2.23,2.9L846,270.88a3.65,3.65,0,0,0,1.79-2.74A16,16,0,0,0,847.63,264.15Z" transform="translate(-563.92 -16.35)"></path><path class="cls-47" d="M837.07,289.45c0,.26.18.48.53.7.1.06,0-1.39.32-1.15.1.07,4.77,3.7,7.38,3a.54.54,0,0,0,.38-.56v-.58c0-.67-.94-1.67-2.44-3.13s-2.69-2.6-5.15-1.18c-.7.4-1,.71-1,1Z" transform="translate(-563.92 -16.35)"></path><path class="cls-81" d="M843.24,287.76c2,1.94,3.08,3.08,2.06,3.67s-3.07-.3-5.16-1.88c-1.83-1.38-4.51-1.55-2-3S841.6,286.16,843.24,287.76Z" transform="translate(-563.92 -16.35)"></path><path class="cls-82" d="M841.24,286.84,841.1,269l-4.85,1.57,0,3.26a21.46,21.46,0,0,0,.75,7.84s.84,1.72.67,5.73C837.62,287.35,839.8,288.58,841.24,286.84Z" transform="translate(-563.92 -16.35)"></path><path class="cls-90" d="M854.48,261.77h0a1.94,1.94,0,0,1-2.57-1l-7.68-17a2,2,0,0,1,1-2.57h0a1.93,1.93,0,0,1,2.56,1l7.68,17A1.94,1.94,0,0,1,854.48,261.77Z" transform="translate(-563.92 -16.35)"></path><polygon class="cls-33" points="291.3 243.49 279.28 236.55 279.28 226.86 291.3 233.8 291.3 243.49"></polygon><polygon class="cls-91" points="288.34 240.88 288.34 233.52 288.6 233.67 288.6 241.02 288.34 240.88"></polygon><polygon class="cls-92" points="287.76 238.36 287.76 233.18 288.02 233.33 288.02 238.51 287.76 238.36"></polygon><polygon class="cls-93" points="287.18 239.64 287.18 232.85 287.44 233 287.44 239.78 287.18 239.64"></polygon><polygon class="cls-94" points="286.6 239.87 286.6 232.51 286.86 232.66 286.86 240.02 286.6 239.87"></polygon><polygon class="cls-95" points="286.02 234.87 286.02 232.18 286.27 232.33 286.27 235.02 286.02 234.87"></polygon><path class="cls-96" d="M833.1,264.77v6.61s7.74,2.61,15-6.61v-6.39Z" transform="translate(-563.92 -16.35)"></path><path class="cls-97" d="M836.61,266.82a.62.62,0,0,0,.24.08c1.3.1,6-.91,10.63-6.17a2.42,2.42,0,0,0,.63-1.52V244.29a2.48,2.48,0,0,0-1-2.28l-3.51-2a2.44,2.44,0,0,0-2.5.23L836.27,243a7.78,7.78,0,0,0-3.51,6.08v15a.75.75,0,0,0,.34.72Z" transform="translate(-563.92 -16.35)"></path><path class="cls-50" d="M838,243.89a1.23,1.23,0,0,0,.73,1,3.86,3.86,0,0,0,3.5,0,1.2,1.2,0,0,0,.72-1v-3.26a1.2,1.2,0,0,0-.72-1,3.86,3.86,0,0,0-3.5,0,1.23,1.23,0,0,0-.73,1Z" transform="translate(-563.92 -16.35)"></path><path class="cls-98" d="M824.76,265.24h0a2,2,0,0,1-.86-2.61l8.44-16.72a1.94,1.94,0,0,1,2.6-.85h0a1.93,1.93,0,0,1,.86,2.6l-8.44,16.72A1.94,1.94,0,0,1,824.76,265.24Z" transform="translate(-563.92 -16.35)"></path><path class="cls-47" d="M846.73,233.59l2.44,9.49a1.1,1.1,0,0,1-1.49,1.3L842.05,242a1.09,1.09,0,0,1-.66-1.23l1.84-9.34a1.11,1.11,0,0,1,2-.37l1.34,2.19A1.14,1.14,0,0,1,846.73,233.59Z" transform="translate(-563.92 -16.35)"></path><path class="cls-98" d="M838.16,239.27c0,.82-.57,1.15-1.27.74a2.82,2.82,0,0,1-1.27-2.21c0-.81.57-1.14,1.27-.73A2.8,2.8,0,0,1,838.16,239.27Z" transform="translate(-563.92 -16.35)"></path><circle class="cls-98" cx="276.48" cy="219.05" r="6.81"></circle><path class="cls-47" d="M833.78,236.31s5.76,3.15,8.56-5.06a4.74,4.74,0,0,0,5.25,2.7,6.67,6.67,0,0,0-5.57-6.44S832.16,226.52,833.78,236.31Z" transform="translate(-563.92 -16.35)"></path><path class="cls-47" d="M837,236.58l2.45,9.49a1.11,1.11,0,0,1-1.5,1.3L832.27,245a1.12,1.12,0,0,1-.66-1.24l1.85-9.34a1.11,1.11,0,0,1,2-.36l1.34,2.19A1,1,0,0,1,837,236.58Z" transform="translate(-563.92 -16.35)"></path><path class="cls-48" d="M876.15,382.46h0a1.87,1.87,0,0,0,2.48-.93l6-13.34a1.88,1.88,0,0,0-.93-2.48h0a1.88,1.88,0,0,0-2.48.94l-6,13.33A1.87,1.87,0,0,0,876.15,382.46Z" transform="translate(-563.92 -16.35)"></path><path class="cls-33" d="M879.38,368.32l2-4.3a2.91,2.91,0,0,1,3.84-1.44h0a2.91,2.91,0,0,1,1.44,3.84l-2,4.3S881.7,372.32,879.38,368.32Z" transform="translate(-563.92 -16.35)"></path><path class="cls-99" d="M888.21,382.53a1.18,1.18,0,0,1,.13.56v6.37a2.61,2.61,0,0,1-2.81,2.29h0a2.61,2.61,0,0,1-2.87-2.21l0-8.08a.73.73,0,0,1,.5-.69A4,4,0,0,1,888.21,382.53Z" transform="translate(-563.92 -16.35)"></path><path class="cls-89" d="M901.51,395.16c.75.33.25,2.29.28,4.19,0,2.63-.52,5.13-1.68,5.83a.77.77,0,0,1-.78.08l-1.17-.65c-.69-.33-1.15-1.88-1.78-4.19-.7-2.55-1.12-4.16,1.68-5.84.8-.48,1.26-.59,1.52-.45Z" transform="translate(-563.92 -16.35)"></path><path class="cls-100" d="M896.38,400.42c.84,3.07,1.38,4.8,2.54,4.1s1.41-3.24,1-6.22c-.37-2.61,1-5.39-1.84-3.72S895.68,397.87,896.38,400.42Z" transform="translate(-563.92 -16.35)"></path><path class="cls-99" d="M895.85,398a1.39,1.39,0,0,1-.56-.16l-11.54-6.4a2.6,2.6,0,0,1-.59-3.57h0a2.6,2.6,0,0,1,3.35-1.39l13,7.22a.73.73,0,0,1,.36.78A4,4,0,0,1,895.85,398Z" transform="translate(-563.92 -16.35)"></path><path class="cls-89" d="M894.08,407.52c.08.82-1.88,1.33-3.52,2.28-2.28,1.32-4.74,2-5.92,1.36a.78.78,0,0,1-.44-.64v-1.35c0-.76,1.09-1.91,2.8-3.58,1.89-1.84,3.09-3,5.92-1.36.8.46,1.13.81,1.13,1.11Z" transform="translate(-563.92 -16.35)"></path><path class="cls-100" d="M887,405.59c-2.28,2.22-3.53,3.53-2.36,4.21s3.52-.34,5.92-2.16c2.11-1.59,5.18-1.78,2.36-3.41S888.89,403.75,887,405.59Z" transform="translate(-563.92 -16.35)"></path><path class="cls-101" d="M888.83,404a1.11,1.11,0,0,1-.14-.56V383.82a2.6,2.6,0,0,1,2.84-2.25h0a2.6,2.6,0,0,1,2.84,2.25v21.3a.71.71,0,0,1-.5.68A4,4,0,0,1,888.83,404Z" transform="translate(-563.92 -16.35)"></path><path class="cls-23" d="M893.44,387.34a.62.62,0,0,1-.24.08c-1.26.1-5.77-.89-10.28-6a2.34,2.34,0,0,1-.62-1.47V365.55a2.36,2.36,0,0,1,1-2.2l3.39-2a2.36,2.36,0,0,1,2.42.22l4.63,2.67a7.54,7.54,0,0,1,3.4,5.89v14.51a.74.74,0,0,1-.33.7Z" transform="translate(-563.92 -16.35)"></path><path class="cls-102" d="M892.12,365.16a1.18,1.18,0,0,1-.7,1,3.73,3.73,0,0,1-3.38,0,1.18,1.18,0,0,1-.7-1V362a1.15,1.15,0,0,1,.7-1,3.73,3.73,0,0,1,3.38,0,1.15,1.15,0,0,1,.7,1Z" transform="translate(-563.92 -16.35)"></path><path class="cls-48" d="M904.89,385.81h0a1.88,1.88,0,0,0,.83-2.52l-6.61-13.07a1.86,1.86,0,0,0-2.51-.82h0a1.88,1.88,0,0,0-.83,2.52l6.6,13.06A1.89,1.89,0,0,0,904.89,385.81Z" transform="translate(-563.92 -16.35)"></path><path class="cls-33" d="M895.9,374.44l-2.14-4.22a2.9,2.9,0,0,1,1.28-3.89h0a2.9,2.9,0,0,1,3.9,1.28l2.13,4.21S900.46,375.13,895.9,374.44Z" transform="translate(-563.92 -16.35)"></path><path class="cls-48" d="M883.08,357a6.59,6.59,0,1,0,6.59-6.59A6.59,6.59,0,0,0,883.08,357Z" transform="translate(-563.92 -16.35)"></path><path class="cls-103" d="M895.16,349.2c5.64,1.93,2.84,10.16-1.26,13.13-2-1.1.43-3.06-2.3-1.69-.54-2.65.68-1.85-.06-5.18-2.87,1.5-8.44-.31-9.3-3.07,1-.45,2-3.28,4.37-4.32C889.61,346.73,893.46,347.33,895.16,349.2Z" transform="translate(-563.92 -16.35)"></path><path class="cls-48" d="M891.87,360.7c0,.78.55,1.1,1.23.71a2.74,2.74,0,0,0,1.23-2.14c0-.78-.55-1.1-1.23-.71A2.72,2.72,0,0,0,891.87,360.7Z" transform="translate(-563.92 -16.35)"></path><rect class="cls-104" width="500" height="500"></rect></g></g></svg>